<mxfile host="app.diagrams.net" modified="2024-04-21T15:25:19.310Z" agent="Mozilla/5.0 (Windows NT 10.0; Win64; x64) AppleWebKit/537.36 (KHTML, like Gecko) Chrome/122.0.0.0 Safari/537.36" version="23.1.7" etag="TozmL2_BlYkwRjl1yzJR" type="github">
  <diagram name="第 1 页" id="iWjoqiGFgnN2QhbFeQs6">
    <mxGraphModel>
      <root>
        <mxCell id="0" />
        <mxCell id="1" parent="0" />
      </root>
    </mxGraphModel>
  </diagram>
</mxfile>
